<svg width="65" height="64" fill="none" xmlns="http://www.w3.org/2000/svg"><path fill-rule="evenodd" clip-rule="evenodd" d="M11.128 18.035A25.547 25.547 0 0 0 7 32c0 12.981 9.637 23.712 22.148 25.427l8.61-14.927a11.62 11.62 0 0 1-5.091 1.167c-4.502 0-8.408-2.55-10.353-6.284L11.128 18.034Zm-.81-2.348A27.542 27.542 0 0 0 5 32c0 14.196 10.692 25.895 24.463 27.483.07.016.142.024.212.024.983.105 1.981.16 2.992.16 15.28 0 27.666-12.387 27.666-27.667 0-3.898-.806-7.608-2.26-10.972a.988.988 0 0 0-.081-.185c-4.29-9.723-14.015-16.51-25.325-16.51-9.077 0-17.132 4.37-22.177 11.122a.991.991 0 0 0-.172.232Zm2.085.557 8.626 14.922c.428-6.054 5.475-10.833 11.638-10.833h22.868c-4.249-8.31-12.894-14-22.868-14-8.237 0-15.567 3.88-20.264 9.911Zm44.048 6.09H39.2A11.655 11.655 0 0 1 44.333 32c0 2.307-.67 4.457-1.824 6.267l-11.17 19.366c.44.022.882.034 1.328.034 14.175 0 25.666-11.492 25.666-25.667 0-3.42-.668-6.683-1.882-9.667ZM41.109 36.712A9.623 9.623 0 0 0 42.333 32c0-5.339-4.328-9.667-9.666-9.667C27.327 22.333 23 26.661 23 32c0 1.596.387 3.103 1.073 4.43l.232.403c.024.04.045.083.062.126a9.662 9.662 0 0 0 8.3 4.708 9.659 9.659 0 0 0 8.135-4.444l.225-.39a.997.997 0 0 1 .082-.12Z" fill="#1C1C1C"/></svg>