<svg width="173" height="41" fill="none" xmlns="http://www.w3.org/2000/svg"><g clip-path="url('#clip0_679_23469')"><path d="m108.453 12.446-4.268 4.27-1.864 1.829-7.783 7.785 2.439 2.44 7.782-7.786 3.694 3.695V12.447ZM104.186 14.814l-2.368-2.368-8.033 8.036-3.622-3.623V28.84l4.626-4.628 1.363-1.363 8.034-8.036ZM99.308 2.76c7.065 0 13.306 2.942 17.143 7.426C112.936 4.374 106.588.5 99.308.5c-7.28 0-13.628 3.874-17.143 9.686C86.002 5.702 92.243 2.76 99.308 2.76ZM99.308 38.24c-7.065 0-13.306-2.942-17.143-7.426 3.515 5.812 9.863 9.686 17.143 9.686 7.28 0 13.628-3.874 17.143-9.686-3.837 4.484-10.078 7.426-17.143 7.426Z" fill="#38B6FF"/><path d="M133.2 12.374h-2.869v16.431h2.869v-16.43ZM142.739 28.77v-7.104h-5.702l-2.546-2.547h8.248v-6.745h2.834V28.77h-2.834ZM149.231 28.733V12.374h2.869v16.36h-2.869ZM.251 28.733l2.797-2.87h8.213c1.543 0 2.367-.86 2.367-2.152 0-1.4-.86-2.117-2.367-2.117H4.985C1.901 21.63 0 19.693 0 16.966c0-2.618 1.793-4.592 5.021-4.592h10.508l-2.869 2.87H5.021c-1.291 0-2.08.754-2.08 2.01 0 1.22.789 1.973 2.044 1.973h6.24c3.3 0 5.093 1.542 5.093 4.735 0 2.726-1.65 4.807-5.093 4.807H.252v-.036ZM44.4 16.177l-7.424 12.556h-3.264l9.397-15.641c.322-.574.753-.933 1.398-.933.646 0 1.04.359 1.363.933l9.433 15.641H51.86L44.4 16.177ZM62.834 28.733c-4.555 0-7.926-3.587-7.926-8.358 0-4.808 3.371-8 7.926-8h7.71l-2.796 2.87H62.87c-2.94 0-5.093 2.188-5.093 5.273 0 3.085 2.152 5.345 5.093 5.345h7.71l-2.797 2.87h-4.949ZM29.91 12.374H19.296l2.87 2.87h7.746c2.008 0 3.192 1.184 3.192 3.086 0 1.83-1.184 3.12-3.192 3.12H19.295v7.32h2.833v-4.557h7.783c3.765 0 5.989-2.44 5.989-5.955-.036-3.587-2.224-5.883-5.99-5.883ZM86.612 19.227h-9.325l2.403 2.403h6.922v-2.403Z" fill="#1D1D1B"/><path d="M75.889 15.245h10.759v-2.87H73.055v16.358h13.593V25.9h-10.76V15.244ZM111.681 28.805l2.798-2.87h8.212c1.543 0 2.367-.861 2.367-2.153 0-1.399-.86-2.116-2.367-2.116h-6.276c-3.084 0-4.985-1.973-4.985-4.664 0-2.619 1.793-4.592 5.021-4.592h10.508l-2.869 2.87h-7.639c-1.291 0-2.08.754-2.08 2.01 0 1.219.789 1.972 2.044 1.972h6.241c3.299 0 5.092 1.543 5.092 4.736 0 2.726-1.649 4.807-5.092 4.807h-10.975ZM166.159 12.446h-10.616l2.869 2.87h7.747c2.008 0 3.192 1.184 3.192 3.085 0 1.83-1.184 3.122-3.192 3.122H155.579v7.318h2.833v-4.592h7.783c3.765 0 5.989-2.44 5.989-5.955-.036-3.588-2.224-5.848-6.025-5.848Z" fill="#1D1D1B"/></g><defs><clipPath id="clip0_679_23469"><path fill="#fff" transform="translate(0 .5)" d="M0 0h172.148v40H0z"/></clipPath></defs></svg>