<svg width="364" height="108" fill="none" xmlns="http://www.w3.org/2000/svg"><g clip-path="url('#clip0_982_54705')" fill="#fff"><path d="M83.369 41.593c-.024 20.452-14.9 37.755-35.205 40.493-14.248 1.921-26.306-2.71-36.141-13.139-.532-.562-.588-1.022-.345-1.72 4.143-11.95 10.307-22.699 19.3-31.685 11.173-11.165 24.58-18.3 40.075-21.534.846-.178 1.44-.048 2.068.674 6.7 7.742 10.2 16.672 10.248 26.91ZM256.856 77.058c4.092-5.23 5.311-11.272 5.2-17.719-.012-.634-.167-.911-.866-.903-2.667.032-5.334.043-8.001-.004-.778-.012-.941.329-.976.982-.127 2.37-.33 4.735-.893 7.053-1.489 6.118-4.513 8.99-10.756 9.925-5.692.852-10.736-.19-14.142-5.38-1.738-2.65-2.631-5.627-3.266-8.693-.941-4.537-1.195-9.14-1.25-13.749-.116-9.315-.032-18.626 1.234-27.89.583-4.263 1.905-8.098 5.267-11.066 5.691-5.02 18.138-4.152 21.773 3.186 1.378 2.781 1.925 5.71 1.941 8.768.008 1.582.823 2.373 2.445 2.373 2.012 0 4.025-.055 6.037.024 1.016.04 1.333-.186 1.333-1.272-.011-6.613-.777-9.509-4.389-16.15 12.466 7.802 19.797 18.856 20.242 33.687.492 16.336-7.141 28.412-20.937 36.824l.004.004ZM131.501 76.808c-10.49-5.202-20.834-18.246-20.901-34.942-.075-18.194 11.482-31.836 23.949-37.177-2.914 2.964-4.565 6.3-5.144 10.095-1.623 10.631 2.226 18.745 11.395 24.415 4.655 2.88 9.7 5.02 14.439 7.738 3.675 2.108 7.251 4.406 9.232 8.313 2.691 5.305 2.48 10.71-.183 15.96-1.687 3.324-4.751 4.92-8.303 5.574a22.073 22.073 0 0 1-9.319-.257c-5.442-1.332-8.136-5.088-9.149-10.314-.424-2.199-.658-4.421-.595-6.66.028-.895-.23-1.224-1.175-1.204-2.619.059-5.239.043-7.858.007-.802-.012-1.056.262-1.024 1.054.238 6.01.952 11.887 4.544 17.01.064.091.06.23.099.388h-.007ZM344.332 7.59c24.714 15.76 24.988 51.575.623 67.835-.171-.09-.115-.213-.036-.325 3.536-4.83 4.834-10.4 5.422-16.213.095-.939-.191-1.2-1.12-1.18-2.619.055-5.243.063-7.862 0-1.02-.028-1.262.368-1.274 1.283-.028 2.338-.389 4.628-1.187 6.847-1.73 4.83-4.945 8.261-9.894 9.7-6.736 1.957-13.277 1.842-18.825-3.194-3.294-2.996-4.834-7.001-5.866-11.229-1.342-5.495-1.167-11.094-1.183-16.68 0-.678.23-.928.889-.86.325.031.655.004.98.004 14.646 0 29.295-.016 43.941.027 1.174 0 1.456-.293 1.448-1.45-.039-7.033-.027-14.065-1.135-21.043-.766-4.822-2.159-9.406-4.929-13.519l.008-.004Z"/><path d="M171.158 6.092c10.292 4.826 20.341 17.41 21.409 32.327 1.413 19.78-10.851 33.877-21.988 39.162 5.616-6.882 6.521-14.755 4.636-23.04-1.433-6.296-5.831-10.456-11.137-13.772-4.048-2.528-8.442-4.41-12.653-6.633-3.687-1.945-7.311-3.978-9.907-7.39-3.897-5.118-3.556-12.722.822-16.902 2.774-2.65 6.239-3.479 9.938-3.376 2.183.06 4.378.282 6.454 1.13 3.977 1.624 5.715 4.877 6.541 8.795.345 1.64.603 3.305.595 4.98 0 .797.329 1.106 1.06 1.11 2.619.012 5.239.016 7.862.028.961 0 .849-.697.814-1.288-.298-5.166-1.179-10.17-4.188-14.565-.075-.11-.115-.25-.258-.57v.004ZM49.145 11.987H14.544c13.034-13.602 39.76-16.684 57.26 1.284-29.938 5.551-50.688 22.93-64.44 49.487C2.938 55.31.644 47.433 1.47 38.922c.75-7.738-.254-5.48 5.715-10.068 9.423-7.242 19.88-12.457 31.561-15.052 3.06-.678 6.156-1.13 9.296-1.232.357-.012.742.06 1.103-.583ZM321.836 35.788c-5.799 0-11.598-.024-17.392.024-1.036.008-1.306-.234-1.294-1.312.067-5.035.262-10.052 1.472-14.965.869-3.526 2.267-6.795 5.081-9.28 3.603-3.18 8.017-3.834 12.565-3.803 3.918.028 7.732.682 10.982 3.134 3.612 2.722 5.184 6.617 6.117 10.821 1.051 4.75 1.23 9.584 1.242 14.434 0 1.054-.568.951-1.242.951-5.847-.004-11.689 0-17.535 0l.004-.004ZM221.386 3.88c-.997 1.047-1.691 1.784-2.398 2.513-4.08 4.212-5.898 9.386-6.521 15.08-1.313 11.977-1.421 23.975-.504 35.972.389 5.068 1.417 10.029 3.767 14.633 1.417 2.781 3.35 5.135 5.679 7.207-7.791-3.071-14.01-8.099-18.689-14.997-4.712-6.942-7.029-14.668-6.918-23.028.143-10.793 4.004-20.148 11.518-27.95 3.905-4.052 8.469-7.167 14.07-9.433l-.004.004ZM299.586 75.671c-12.506-8.677-19.119-20.52-18.511-35.774.575-14.462 7.687-25.334 19.824-33.084-3.266 4.018-5.151 8.653-6.255 13.65-.837 3.791-1.23 7.639-1.258 11.506-.055 7.877-.107 15.757.048 23.634.139 7.23 1.631 14.121 6.156 20.068h-.004Z"/><path d="M25.002 13.568c-7.807 3.998-14.65 9.177-21.127 15.045-.135-.825.266-1.371.488-1.95 1.838-4.842 4.536-9.152 8.021-12.988.544-.598 1.068-.836 1.921-.768 3.56.28 7.128.451 10.697.661ZM221.188 104.258c0-3.859-.008-7.718.007-11.573 0-.487-.285-1.157.707-1.15 1.004.009.679.702.679 1.174.019 4.287.023 8.578-.008 12.865 0 .408.393 1.153-.496 1.169-.727.011-1.528.309-1.993-.741-1.591-3.614-3.27-7.188-4.921-10.773-.183-.397-.397-.781-.854-1.11v8.463c0 1.074-.008 2.144 0 3.218.004.542.032 1.01-.774.978-.766-.027-.639-.523-.639-.963-.004-3.728 0-7.456 0-11.185 0-.42-.079-.86.02-1.252.155-.618-.559-1.577.611-1.806 1.028-.203 1.644.142 2.116 1.22 1.687 3.867 3.524 7.671 5.306 11.498l.239-.024v-.008ZM285.548 94.032c0 3.867.008 7.734-.008 11.597 0 .491.258 1.141-.718 1.149-.989.008-.719-.646-.719-1.137-.012-4.239-.024-8.479.016-12.719.004-.447-.46-1.255.449-1.347.817-.083 1.655-.285 2.163.9 1.476 3.455 3.123 6.839 4.707 10.25.202.44.444.86.94 1.24V92.466c0-.486-.043-.926.683-.934.671-.004.746.333.742.876-.012 4.473 0 8.942-.016 13.415 0 .377.163.951-.516.912-.674-.04-1.464.356-1.901-.658-1.067-2.472-2.226-4.901-3.357-7.35-.735-1.589-1.481-3.178-2.219-4.762l-.242.059-.004.008ZM130.052 103.965v-6.197c0-1.77.004-3.538 0-5.31 0-.494-.024-.918.691-.922.678-.004.738.348.734.883-.012 4.474 0 8.943-.012 13.416 0 .38.159.947-.52.907-.679-.035-1.461.341-1.897-.665-1.187-2.722-2.457-5.413-3.699-8.11-.615-1.336-1.25-2.667-2.116-3.951v10.928c0 .325-.015.653 0 .978.028.527-.043.884-.738.856-.587-.028-.683-.301-.683-.788.008-4.565.008-9.13 0-13.694 0-.42.06-.772.58-.729.683.056 1.465-.324 1.897.674.977 2.254 2.052 4.47 3.088 6.7l2.369 5.091c.104-.019.203-.039.306-.059v-.008ZM195.929 101.429c-.071-1.204-.353-2.215-1.845-2.58 2.286-.998 2.19-2.856 1.96-4.702-.226-1.791-.809-2.358-2.603-2.504-1.489-.12-2.989-.044-4.485-.107-.782-.032-.782.424-.782.982.012 4.426.008 8.856.004 13.282 0 .542-.032 1.006.774.978.758-.028.643-.511.647-.959.008-1.814-.008-3.633.012-5.452.004-.336-.155-.733.341-.947 2.258-.966 4.56.523 4.604 2.968.024 1.256.143 2.512.175 3.764.015.634.396.614.845.61.536-.004.623-.305.536-.733-.306-1.525-.084-3.066-.183-4.6Zm-3.635-3.257c-1.797.088-2.695-.842-2.695-2.789 0-1.796.911-2.666 2.734-2.611 1.723.051 2.346.67 2.398 2.373.063 1.977-.715 2.94-2.437 3.027ZM85.262 98.993c.048-1.344-.119-2.88.27-4.398.798-3.115 4.842-4.505 7.41-2.528.885.681 1.163 1.644 1.278 2.686.048.42.024.76-.535.717-.39-.031-.743.103-.925-.53-.592-2.061-1.338-2.568-3.223-2.445-1.596.103-2.405.852-2.671 2.84-.365 2.727-.433 5.484.095 8.194.4 2.057 3.656 3.194 5.35 1.962.036-.028.087-.04.12-.076.186-.186.305-5.075.079-5.218-.544-.345-1.175-.079-1.759-.166-.44-.068-1.099.289-1.147-.587-.051-.963.651-.705 1.155-.717 2.23-.04 3.346 1.055 3.346 3.285v1.957c0 1.741-.884 2.738-2.651 2.991-4.02.575-6.06-1.109-6.196-5.134-.031-.884-.004-1.768-.004-2.841l.008.008ZM28.855 101.295c-.035-1.173-.393-2.104-1.714-2.401 1.79-1.193 2.306-2.754 1.818-5.132-.262-1.267-.5-2.226-2.322-2.234-1.516.008-3.12.016-4.707.012-.917 0-.747.467-.747.994.004 4.43 0 8.86.008 13.289 0 .428-.162.939.628.955.79.012.781-.424.777-.978-.012-1.819-.015-3.638.008-5.452 0-.325-.198-.73.322-.94 2.29-.927 4.556.531 4.624 2.996.031 1.208.11 2.417.115 3.625 0 .654.321.745.873.741.73-.008.52-.487.504-.871-.06-1.534-.139-3.071-.187-4.604Zm-3.44-3.127c-1.882.146-2.823-.775-2.823-2.761 0-1.841.938-2.72 2.814-2.635 1.64.071 2.195.654 2.239 2.342.052 2-.631 2.928-2.23 3.054ZM271.776 101.069c-.044-1.078-.468-1.882-1.746-2.188 1.873-1.184 2.397-2.761 1.861-5.17-.266-1.189-.949-1.866-2.163-2.04-1.536-.223-3.08-.04-4.612-.131-.794-.048-1.036.21-1.028 1.01.036 4.422.012 8.844.024 13.261 0 .42-.183.947.615.963.774.016.798-.392.794-.959-.02-1.818-.02-3.633.004-5.448.004-.325-.207-.733.298-.955 2.202-.966 4.596.54 4.651 2.932.028 1.252.111 2.508.131 3.761.004.61.349.637.818.661.551.032.599-.257.575-.689-.083-1.668-.147-3.336-.222-5.008Zm-3.521-2.9c-1.828.108-2.742-.798-2.742-2.719 0-1.86.929-2.752 2.786-2.678 1.695.063 2.294.701 2.31 2.44.016 1.97-.695 2.861-2.354 2.956ZM323.777 98.882c1.869-1.193 2.603-4.042 1.563-5.995-.404-.76-1.079-1.169-1.924-1.209-1.536-.07-3.08-.055-4.616-.138-.778-.044-1.036.182-1.028.994.039 4.422.02 8.848.02 13.27 0 .515-.092.994.742.978.897-.024.651-.61.655-1.058.019-1.814 0-3.633.015-5.448.004-.289-.154-.645.235-.855 1.885-1.027 4.699.546 4.77 2.674.04 1.304.064 2.607.092 3.907.008.495.186.768.75.764.468-.004.67-.13.647-.63-.088-1.719-.143-3.435-.211-5.154-.047-1.11-.575-1.839-1.71-2.1Zm-1.818-.71c-1.842.1-2.762-.84-2.762-2.82 0-1.776.908-2.637 2.726-2.584 1.85.055 2.366.594 2.374 2.472.008 2.021-.647 2.841-2.338 2.932ZM160.827 101.053c-.043-1.09-.472-1.886-1.758-2.164 1.842-1.153 2.362-2.726 1.889-5.095-.254-1.26-.952-2.032-2.238-2.112-1.584-.099-3.179-.063-4.763-.142-.782-.04-.79.396-.786.962.012 4.426.004 8.856.004 13.286 0 .511-.099 1.022.742.986.866-.036.655-.614.659-1.078.016-1.771 0-3.546.02-5.317 0-.329-.202-.737.29-.963 2.088-.959 4.56.523 4.652 2.81.051 1.303.115 2.607.131 3.906.003.626.369.614.825.634.556.024.587-.261.564-.693-.092-1.672-.159-3.348-.231-5.02Zm-3.794-2.88c-1.632.039-2.449-.731-2.449-2.31v-1.114c0-1.32.649-1.981 1.945-1.981 2.647.004 3.302.638 3.104 3.007-.139 1.704-.85 2.358-2.6 2.397ZM242.592 101.247c-.028-1.201-.421-2.092-1.755-2.362 1.858-1.176 2.417-2.722 1.893-5.11-.265-1.221-.972-2.033-2.27-2.1-1.631-.092-3.266-.072-4.897-.127-.747-.028-.663.463-.663.93v13.278c.004.487-.155 1.038.706 1.018.854-.016.695-.563.695-1.05.008-1.771-.004-3.538.016-5.309.004-.337-.191-.753.258-.99 1.976-1.05 4.703.59 4.754 2.86.028 1.256.064 2.508.072 3.764.004.543.246.705.77.721.643.024.655-.317.631-.784-.083-1.577-.175-3.158-.21-4.739Zm-3.426-3.083c-1.907.143-2.861-.774-2.861-2.75 0-1.84.944-2.721 2.834-2.642 1.682.071 2.222.626 2.266 2.334.048 2.028-.619 2.94-2.239 3.058ZM185.304 94.836c-.56-2.52-1.842-3.582-4.398-3.562-2.524.016-3.937 1.153-4.326 3.645a28.065 28.065 0 0 0-.008 8.495c.361 2.413 1.814 3.594 4.215 3.622 2.699.031 3.965-.995 4.517-3.574.305-1.431.206-2.873.277-4.311-.079-1.438.04-2.885-.277-4.315Zm-1.445 8.689c-.413 1.553-1.199 2.235-2.731 2.294-1.631.064-2.691-.558-3.008-2.104-.623-3.027-.635-6.097.008-9.124.333-1.581 1.31-2.152 2.996-2.1 1.509.047 2.338.756 2.735 2.286.381 1.466.206 2.963.321 4.445-.123 1.435.056 2.881-.321 4.303ZM314.998 97.66c0 1.772.071 3.547-.016 5.314-.131 2.583-1.584 3.982-4.052 4.061-2.902.091-4.453-1.085-4.727-3.784-.365-3.62-.072-7.266-.167-10.895-.016-.615.199-.813.802-.82.698-.008.722.384.718.899-.012 2.983-.012 5.967 0 8.95 0 .65.036 1.308.135 1.95.254 1.62 1.139 2.409 2.703 2.48 1.667.075 2.659-.622 3.036-2.266.357-1.557.175-3.158.191-4.74.02-2.095.016-4.195 0-6.291-.004-.563 0-.995.778-.983.778.012.635.516.635.955.008 1.724 0 3.451 0 5.175h-.04l.004-.004ZM41.398 105.779c-1.362-4.481-2.779-8.946-4.164-13.423-.175-.563-.42-.836-1.068-.828-.603.003-.944.166-1.127.756-1.488 4.779-2.996 9.549-4.524 14.403.86.13 1.428.182 1.675-.721.29-1.058.238-2.548 1.11-3.027.906-.492 2.267-.163 3.43-.187.468-.012.937.028 1.401-.012.687-.055.992.222 1.135.904.183.856.552 1.676.762 2.528.187.748.746.634 1.219.558.833-.13.222-.705.15-.951Zm-7.823-4.306 2.484-8.293 2.529 8.293h-5.013ZM64.48 99.107v-6.565c0-.5-.13-1.014.72-1.01.873.004.682.562.682 1.038.012 1.585.06 3.17-.016 4.75-.044.896.266 1.13 1.111 1.054 1.568-.138 3.672.658 4.56-.305.779-.844.223-2.916.247-4.441.008-.468.031-.935-.004-1.395-.044-.586.25-.69.758-.685.476 0 .663.154.659.641-.012 4.656-.012 9.316 0 13.971 0 .503-.234.598-.683.614-.544.02-.742-.158-.734-.705.024-1.815-.028-3.633.024-5.448.023-.796-.096-1.177-1.036-1.11-1.302.096-2.62.08-3.926.005-.845-.048-.992.28-.972 1.03.052 1.767.02 3.538.016 5.309 0 .448.127.911-.647.935-.822.024-.762-.432-.758-.967.008-2.234 0-4.469 0-6.708v-.008ZM338.899 99.107v-6.43c0-.527-.191-1.15.75-1.141.897.012.639.626.647 1.077.024 1.585.052 3.17-.008 4.755-.032.816.254 1.046 1.04 1.01a46.378 46.378 0 0 1 3.929 0c.731.032.981-.194.957-.935-.048-1.585-.024-3.17-.012-4.754 0-.52-.207-1.153.738-1.15.889 0 .659.61.659 1.067.012 4.382.008 8.76 0 13.142 0 .475.179 1.042-.695 1.03-.845-.008-.706-.547-.706-1.038-.004-1.723-.06-3.451.02-5.171.043-.903-.262-1.105-1.1-1.053-1.21.07-2.437.095-3.647-.005-1.052-.087-1.235.337-1.191 1.264.072 1.676.032 3.356.012 5.032-.004.416.195.951-.607.971-.77.02-.806-.38-.802-.955.016-2.238.008-4.473.008-6.712l.008-.004ZM332.266 107.035c-2.663.008-4.147-1.319-4.219-3.768-.016-.487-.043-.923.687-.915.587.008.83.163.826.785-.012 1.414.543 2.428 2.095 2.646 1.548.218 2.552-.229 3.028-1.378.564-1.352.195-2.782-1.079-3.705-1.127-.82-2.37-1.482-3.501-2.294-1.952-1.407-2.476-3.851-1.282-5.642.985-1.474 4.176-2.025 5.882-.999 1.167.698 1.469 1.855 1.58 3.099.036.412-.155.574-.56.61-.559.051-.869-.1-.924-.717-.127-1.462-.862-2.314-2.433-2.275-1.064.028-2.076.115-2.521 1.316-.464 1.252-.119 2.595.969 3.356 1.143.8 2.318 1.557 3.516 2.274 1.774 1.062 2.231 2.659 1.925 4.557-.329 2.076-1.631 3.043-3.993 3.046l.004.004ZM5.212 107.036c-2.564.004-4.02-1.201-4.167-3.523-.024-.408-.4-1.061.516-1.157.798-.083.873.29.94.955.183 1.716.814 2.366 2.29 2.485 1.172.095 2.327-.024 2.823-1.296.484-1.248.38-2.476-.66-3.471-.952-.915-2.15-1.474-3.262-2.155-1.798-1.102-2.79-2.552-2.409-4.747.33-1.918 1.85-2.948 4.314-2.86 2.175.079 3.442 1.176 3.565 3.137.023.4.325.983-.469 1.062-.627.064-.917-.134-.96-.828-.08-1.268-.727-2.092-2.1-2.147-1.159-.048-2.298 0-2.83 1.283-.484 1.173-.087 2.623.98 3.368 1.223.856 2.52 1.6 3.751 2.44 1.628 1.114 2.183 3.024 1.536 5.088-.492 1.573-1.766 2.35-3.862 2.35l.004.016ZM47.264 107.036c-2.703.004-4.31-1.53-4.184-3.943.028-.515.147-.753.715-.741.504.012.758.099.762.686.012 1.367.432 2.508 2.016 2.718 1.195.158 2.361.135 3.04-1.129.627-1.169.393-2.825-.702-3.681-1.167-.916-2.45-1.688-3.707-2.484-1.68-1.062-2.171-2.576-1.822-4.45.361-1.93 2.016-2.936 4.529-2.738 2.083.163 3.353 1.427 3.37 3.368 0 .416.09.84-.588.848-.572.004-.766-.15-.881-.749-.346-1.81-.858-2.235-2.445-2.246-1.076-.012-2.088.138-2.513 1.323-.436 1.212-.027 2.65 1.008 3.36 1.227.844 2.529 1.58 3.755 2.428 1.834 1.268 2.33 4.133 1.088 5.968-.683 1.01-1.75 1.462-3.441 1.466v-.004ZM53.605 99.143c.056-1.771-.04-3.55.532-5.258.683-2.056 2.6-2.98 5.128-2.52 1.723.313 2.739 1.629 2.739 3.515 0 .451.035.832-.623.792-.465-.028-.719-.075-.834-.646-.417-2.104-1.004-2.623-2.623-2.531-1.548.087-2.493 1.03-2.687 2.848-.27 2.548-.274 5.111.008 7.659.127 1.141.555 2.191 1.758 2.647 1.857.705 3.302-.202 3.52-2.326.092-.876.393-1.141 1.187-.994.933.17.357.82.302 1.196-.318 2.243-1.505 3.408-3.47 3.511-2.511.134-3.944-.86-4.56-3.178-.07-.269-.146-.543-.166-.816-.084-1.3-.143-2.599-.21-3.899ZM262.167 94.222c-.183-1.64-1.068-2.512-2.731-2.627-1.254-.087-2.524.004-3.787-.06-.801-.04-1.035.242-1.016 1.035.048 2.14.016 4.287.016 6.426 0 2.14-.016 4.382.012 6.573.004.476-.313 1.165.667 1.205.988.035.71-.646.722-1.137.028-1.118.008-2.235.008-3.356 0-1.614.809-2.453 2.425-2.516 2.346-.095 3.457-1.022 3.684-3.174.079-.78.083-1.585 0-2.37Zm-3.569 4.231c-1.693.056-2.54-.919-2.54-2.924v-.277c0-1.736.856-2.562 2.568-2.48 1.651.083 2.219.816 2.199 2.837-.02 1.973-.663 2.793-2.227 2.844ZM362.522 93.763c-.306-1.288-1.111-2.152-2.441-2.231-1.306-.075-2.592-.008-3.897 0-.957.008-1.08.297-1.06 1.117.056 2.144.02 4.287.02 6.43 0 2.144-.036 4.197.024 6.293.012.503-.167 1.45.71 1.386.873.004.647-.891.643-1.454-.012-.974.028-1.953.028-2.932 0-1.664.813-2.534 2.441-2.61 1.476-.072 2.826-.413 3.357-2.006.433-1.3.497-2.642.175-3.993Zm-4.413 4.817c-1.85.016-1.782-.067-1.743-1.91-.016-.578-.035-.982-.024-1.56-.015-.824-.214-2.148.409-2.2a19.038 19.038 0 0 1 3.29.013c1.104.36 1.219 1.434 1.231 2.44-.119 2.544-.496 3.233-3.163 3.218ZM143.956 99.123c0-2.187.031-4.378-.016-6.565-.02-.78.19-1.054 1.004-1.026 1.635.06 3.27 0 4.909.027.449.008 1.12-.245 1.084.638-.036.896-.726.54-1.151.555a48.63 48.63 0 0 1-3.647 0c-.62-.024-.806.182-.786.788a70.087 70.087 0 0 1 0 4.05c-.02.63.222.792.817.776 1.215-.04 2.429-.015 3.648-.007.409 0 .849-.084.849.59 0 .697-.46.566-.857.57-1.167.012-2.342.064-3.505-.016-.869-.059-.984.317-.952 1.047a41.792 41.792 0 0 1-.004 3.91c-.044.836.158 1.153 1.059 1.094 1.259-.083 2.525-.02 3.787-.02.428 0 .841-.048.849.606.004.646-.389.618-.829.614-1.778-.004-3.557-.039-5.331.016-.75.024-.952-.218-.94-.943.043-2.235.016-4.469.016-6.708l-.004.004ZM203.493 99.075c0-2.14.036-4.283-.016-6.422-.019-.805.115-1.173 1.048-1.126 1.679.08 3.362.024 5.045.024.476 0 .956-.055.909.686-.04.69-.532.523-.913.527-1.215.016-2.429.035-3.644-.004-.674-.02-1.028.103-.992.9.063 1.299.04 2.606.008 3.906-.016.606.202.824.81.804a64.463 64.463 0 0 1 3.504 0c.389.012.973-.273 1 .55.028.817-.528.6-.944.603-1.167.016-2.338.04-3.505-.008-.675-.028-.889.194-.869.868a50.86 50.86 0 0 1-.004 4.188c-.04.86.341 1.002 1.076.979 1.258-.044 2.524 0 3.782-.016.484-.008.806.067.786.669-.02.559-.349.555-.746.555-1.87-.004-3.739-.036-5.604.012-.838.02-.727-.487-.727-.995v-6.7h-.004ZM245.568 99.159c0-2.144.036-4.287-.016-6.43-.019-.857.127-1.26 1.128-1.205 1.631.087 3.274.02 4.909.027.401 0 .877-.123.917.543.044.73-.429.682-.917.678-1.214-.008-2.433.031-3.647-.016-.683-.024-1.02.099-.977.891.068 1.256.052 2.516.004 3.772-.027.721.187.995.941.951a27.59 27.59 0 0 1 3.084 0c.456.024 1.25-.396 1.222.61-.023.908-.742.5-1.159.523a32.47 32.47 0 0 1-3.226.004c-.671-.031-.889.175-.866.852a62.544 62.544 0 0 1 0 4.331c-.027.709.243.868.889.848 1.31-.04 2.62-.016 3.93-.008.397 0 .845-.119.873.562.032.765-.461.654-.917.654-1.73 0-3.465-.043-5.191.02-.846.032-1.008-.293-.993-1.046.044-2.191.016-4.378.016-6.57l-.004.009ZM274.776 99.162c0-2.143.031-4.287-.016-6.43-.02-.852.123-1.264 1.123-1.209 1.631.092 3.274.028 4.91.02.488 0 .96-.043.916.686-.039.665-.515.53-.916.535-1.215.008-2.433.035-3.648-.008-.678-.024-1.024.09-.98.891.067 1.256.051 2.516.004 3.772-.028.717.182.999.936.955a27.59 27.59 0 0 1 3.084 0c.457.024 1.247-.396 1.227.61-.02.908-.742.503-1.155.523a32.46 32.46 0 0 1-3.227.004c-.667-.031-.893.17-.869.852a61.318 61.318 0 0 1 0 4.331c-.028.705.234.871.889.848 1.31-.044 2.619-.016 3.929-.008.397 0 .846-.123.873.562.032.765-.456.658-.916.658-1.731 0-3.465-.044-5.192.02-.841.032-1.008-.285-.992-1.046.044-2.191.016-4.378.016-6.57l.004.004ZM296.963 99.108c0-2.144.056-4.288-.024-6.431-.036-.959.294-1.18 1.187-1.145 1.635.063 3.274.02 4.909.016.437 0 .858-.04.866.598.008.622-.377.63-.834.626-1.262-.012-2.528.044-3.786-.02-.766-.04-.953.234-.921.951.067 1.486-.488 3.376.23 4.355.691.939 2.703.194 4.132.305.385.027.869-.15.905.543.036.792-.512.617-.945.621-1.123.012-2.246.044-3.365-.007-.703-.032-.989.138-.957.907.064 1.442.044 2.888.008 4.331-.016.606.19.808.798.792 1.357-.036 2.71-.008 4.068-.012.44 0 .821-.028.821.622 0 .662-.404.602-.833.602-1.778 0-3.556-.035-5.33.016-.758.024-.949-.245-.937-.959.04-2.234.016-4.473.012-6.707l-.004-.004ZM112.454 99.135c0-2.191.031-4.382-.016-6.57-.016-.78.194-1.061 1.012-1.033 1.683.06 3.365.016 5.052.02.417 0 .869-.084.889.57.024.74-.48.65-.948.65-1.262 0-2.528.027-3.791-.012-.599-.02-.825.15-.805.776a70.225 70.225 0 0 1 0 4.054c-.016.622.23.796.821.78 1.215-.035 2.433 0 3.648-.016.468-.004.817.036.79.662-.024.594-.417.511-.782.511-1.171.004-2.342.056-3.509-.016-.833-.051-1.02.258-.98 1.023.059 1.256.075 2.52 0 3.772-.06.943.17 1.335 1.202 1.252 1.207-.095 2.429-.024 3.648-.024.417 0 .837-.075.845.59.008.638-.353.634-.805.63-1.826-.008-3.648-.035-5.474.012-.75.02-.821-.333-.817-.931.02-2.235.008-4.473.008-6.708l.012.008ZM79.57 106.758c-.936-.127-2.46.519-3.135-.249-.568-.646-.198-2.124-.203-3.234-.011-3.49.048-6.98-.035-10.468-.024-1.097.333-1.33 1.341-1.28 1.584.084 3.175.024 4.763.02.437 0 .857-.035.861.603.008.622-.377.63-.833.626-1.262-.012-2.524.04-3.783-.02-.754-.036-.956.222-.924.943a42.58 42.58 0 0 1 0 3.768c-.036.776.281.943.98.911 1.12-.051 2.242-.031 3.362 0 .4.012.984-.246 1.016.55.031.813-.548.591-.96.6-1.12.019-2.243.047-3.362-.009-.743-.035-1.088.115-1.04.963.087 1.621-.524 3.685.262 4.739.754 1.006 2.953.222 4.512.317.46.028.945-.099.917.665-.024.694-.476.551-.87.559-.888.008-1.773 0-2.873 0l.004-.004ZM102.964 98.783c-.012 1.87-.048 3.268.262 4.643.361 1.609 1.262 2.381 2.798 2.393 1.365.008 2.072-.701 2.445-2.373.099-.448-.222-1.201.774-1.141.575.036.805.111.782.773-.08 2.016-1.322 3.641-3.12 3.934-2.302.376-4.267-.563-4.798-2.607-.917-3.515-.925-7.104.023-10.619.532-1.961 2.374-2.785 4.751-2.46 1.854.253 2.838 1.291 3.021 3.265.035.388.325.978-.465 1.07-.611.07-.845-.096-.972-.777-.357-1.914-.98-2.437-2.497-2.393-1.583.043-2.381.824-2.766 2.59-.302 1.384-.214 2.782-.234 3.702h-.004ZM136.978 99.713c0-1.957-.044-3.914.019-5.867.028-.84-.17-1.197-1.067-1.086-.643.08-1.306 0-1.961.02-.48.012-.663-.186-.647-.666.012-.432.226-.567.611-.567 2.525 0 5.049.004 7.577-.007.496 0 .655.23.639.685-.016.42-.23.575-.627.55-.091-.007-.186 0-.282 0-1.828.093-2.742 1.055-2.742 2.885v10.06c0 .587.051 1.098-.838 1.066-.865-.032-.678-.59-.678-1.062-.012-2.001-.004-4.006-.004-6.01ZM14.34 99.753c0-1.957-.055-3.914.024-5.868.04-.955-.297-1.22-1.178-1.125-.556.06-1.123-.004-1.683.016-.476.016-.834-.044-.814-.65.016-.511.306-.594.735-.594 2.433.008 4.861.008 7.294 0 .46 0 .822.04.806.661-.016.547-.33.587-.738.575h-.139c-.92.075-2.21-.42-2.671.206-.472.646-.195 1.862-.199 2.829-.011 3.308 0 6.613-.007 9.921 0 .48.162 1.042-.695 1.05-.833.008-.73-.511-.734-1.018v-6.007.004ZM168.34 99.044c0-2.143.044-4.287-.02-6.43-.028-.876.246-1.126 1.104-1.086 1.492.067 2.992.012 4.489.024.392 0 .865-.123.896.554.036.757-.468.658-.928.662-1.076 0-2.155.052-3.227-.016-.766-.047-.957.23-.921.947.056 1.209.08 2.425-.004 3.633-.067.936.334 1.094 1.139 1.043.933-.064 1.87-.016 2.806-.016.381 0 .739-.032.766.538.032.65-.357.638-.805.634-.937-.008-1.874.052-2.806-.02-.83-.063-1.147.135-1.104 1.047.084 1.719.028 3.447.02 5.17 0 .492.147 1.03-.702 1.046-.866.016-.703-.543-.703-1.022-.008-2.235 0-4.473 0-6.708ZM228.157 99.666c0-1.91-.04-3.82.02-5.725.027-.872-.155-1.308-1.136-1.181-.599.075-1.214 0-1.821.02-.477.016-.834-.04-.814-.65.016-.52.314-.587.742-.587 2.477.008 4.954.008 7.434 0 .433 0 .699.076.699.603 0 .491-.195.677-.663.626-.091-.008-.187 0-.282 0-1.844.068-2.766 1.018-2.766 2.849v10.059c0 .555.131 1.134-.794 1.098-.913-.036-.603-.678-.607-1.102-.028-2-.012-4.005-.012-6.006v-.004ZM350.79 99.246c0-2.239.004-4.473-.004-6.712 0-.543-.048-1.022.758-.999.742.024.655.492.655.96v13.281c0 .526.063 1.018-.754.994-.762-.024-.651-.503-.651-.955-.004-2.191 0-4.382 0-6.573l-.004.004Z"/></g><defs><clipPath id="clip0_982_54705"><path fill="#fff" transform="translate(.95 .778)" d="M0 0h362.1v106.313H0z"/></clipPath></defs></svg>