<svg width="400" height="93" fill="none" xmlns="http://www.w3.org/2000/svg"><path d="m251.868 27.663-9.899 9.885-4.326 4.236-18.051 18.026 5.656 5.649L243.3 47.433l8.568 8.556V27.663ZM241.969 33.145l-5.49-5.482-18.634 18.607-8.402-8.39v27.745l10.731-10.716 3.161-3.157 18.634-18.607ZM230.658 5.235c16.388 0 30.862 6.812 39.763 17.195C262.269 8.973 247.545.002 230.658.002c-16.886 0-31.61 8.971-39.762 22.428 8.9-10.383 23.375-17.195 39.762-17.195ZM230.658 87.388c-16.387 0-30.862-6.811-39.762-17.195 8.152 13.457 22.876 22.428 39.762 22.428 16.887 0 31.611-8.97 39.763-22.428-8.901 10.384-23.375 17.195-39.763 17.195ZM309.264 27.497h-6.655v38.045h6.655V27.497ZM331.393 65.459V49.01h-13.226l-5.906-5.897h19.132V27.497h6.572V65.46h-6.572ZM346.448 65.376V27.497h6.655v37.879h-6.655ZM.895 65.376l6.488-6.646h19.05c3.577 0 5.49-1.993 5.49-4.984 0-3.24-1.996-4.9-5.49-4.9H11.875C4.721 48.927.312 44.442.312 38.13c0-6.064 4.16-10.633 11.647-10.633h24.373l-6.655 6.645H11.96c-2.995 0-4.825 1.745-4.825 4.652 0 2.825 1.83 4.569 4.741 4.569H26.35c7.653 0 11.812 3.572 11.812 10.965 0 6.313-3.826 11.13-11.812 11.13H.895v-.082ZM103.295 36.302l-17.22 29.074h-7.57l21.796-36.218c.748-1.329 1.746-2.16 3.244-2.16 1.497 0 2.412.831 3.161 2.16l21.878 36.218h-7.986l-17.303-29.074ZM146.054 65.376c-10.565 0-18.384-8.307-18.384-19.355 0-11.131 7.819-18.524 18.384-18.524h17.885l-6.489 6.645h-11.313c-6.821 0-11.812 5.067-11.812 12.211s4.991 12.377 11.812 12.377h17.885l-6.488 6.646h-11.48ZM69.688 27.497H45.065l6.655 6.645h17.968c4.659 0 7.404 2.742 7.404 7.144 0 4.237-2.745 7.227-7.404 7.227H45.065v16.946h6.572v-10.55h18.051c8.735 0 13.892-5.648 13.892-13.789-.083-8.307-5.157-13.623-13.892-13.623ZM201.205 43.363h-21.628l5.574 5.565h16.054v-5.565Z" fill="#fff"/><path d="M176.335 34.142h24.956v-6.645h-31.527v37.879h31.527v-6.563h-24.956v-24.67ZM259.353 65.542l6.488-6.646h19.05c3.577 0 5.49-1.993 5.49-4.984 0-3.24-1.996-4.9-5.49-4.9h-14.558c-7.154 0-11.562-4.57-11.562-10.8 0-6.063 4.159-10.632 11.646-10.632h24.373l-6.655 6.645h-17.718c-2.995 0-4.825 1.745-4.825 4.652 0 2.825 1.83 4.569 4.741 4.569h14.475c7.653 0 11.812 3.572 11.812 10.965 0 6.313-3.827 11.13-11.812 11.13h-25.455ZM385.712 27.663h-24.623l6.655 6.645h17.968c4.658 0 7.403 2.742 7.403 7.144 0 4.237-2.745 7.227-7.403 7.227H361.172v16.946h6.572V54.992h18.051c8.735 0 13.892-5.648 13.892-13.789-.083-8.307-5.157-13.54-13.975-13.54Z" fill="#fff"/></svg>